<?xml version="1.0" standalone="no"?>
<!DOCTYPE svg PUBLIC "-//W3C//DTD SVG 20010904//EN"
 "http://www.w3.org/TR/2001/REC-SVG-20010904/DTD/svg10.dtd">
<svg version="1.0" xmlns="http://www.w3.org/2000/svg"
 width="500.000000pt" height="500.000000pt" viewBox="0 0 500.000000 500.000000"
 preserveAspectRatio="xMidYMid meet">
<metadata>
Created by potrace 1.14, written by Peter Selinger 2001-2017
</metadata>
<g transform="translate(0.000000,500.000000) scale(0.100000,-0.100000)"
fill="#000000" stroke="none">
<path d="M3550 4229 c-111 -12 -243 -50 -356 -103 -118 -56 -192 -107 -292
-201 -192 -181 -279 -361 -304 -632 l-11 -124 -52 128 c-29 70 -121 298 -205
506 l-153 377 -351 -2 -351 -3 -672 -1665 c-370 -916 -673 -1666 -673 -1667 0
-2 184 -3 408 -3 l409 0 93 253 c51 138 106 287 122 330 l30 77 635 0 c592 0
635 -1 629 -17 -4 -9 -38 -70 -76 -134 -39 -65 -70 -122 -70 -127 0 -25 123
-112 264 -188 l80 -43 27 -73 26 -73 194 -6 c107 -3 210 -11 229 -17 69 -22
273 -42 423 -42 145 0 301 15 415 40 l52 12 0 47 c0 98 47 227 118 320 118
156 299 237 511 229 l95 -3 18 60 c52 169 64 409 28 549 -39 153 -130 290
-284 426 -159 142 -300 227 -601 360 -437 193 -564 290 -565 431 0 135 88 236
242 275 87 23 283 14 388 -16 116 -33 267 -95 354 -145 44 -25 82 -45 85 -45
3 0 74 135 158 300 l151 300 -59 40 c-96 66 -208 117 -381 174 -177 59 -281
80 -458 96 -129 11 -150 11 -270 -1z m-1531 -1570 c100 -264 181 -482 179
-485 -3 -2 -172 -3 -375 -2 l-371 3 157 410 c87 226 170 443 185 483 15 39 31
72 34 72 4 0 90 -217 191 -481z m947 -135 c111 -87 205 -140 475 -268 238
-113 378 -192 446 -250 145 -125 114 -374 -56 -460 -116 -59 -293 -81 -437
-53 -141 27 -143 29 -191 148 -23 57 -130 322 -237 589 l-196 485 56 -63 c31
-34 94 -92 140 -128z"/>
<path d="M4495 1066 c-90 -42 -135 -114 -135 -216 1 -104 53 -187 142 -224 51
-22 153 -20 203 3 46 20 101 79 121 127 33 79 4 214 -57 271 -70 64 -186 81
-274 39z"/>
</g>
</svg>
